<svg xmlns="http://www.w3.org/2000/svg" width="1280" height="408" viewBox="0 0 1280 408" role="img" aria-label="Contribution activity"><title>Contribution activity</title><rect x="1" y="1" width="1278" height="406" rx="18" fill="#0d1117" stroke="#1d2a24" stroke-width="2"/><text x="30" y="46" font-family="'Segoe UI', -apple-system, Helvetica, Arial, sans-serif" font-size="20" font-weight="600" fill="#e8f0ec">Contribution Activity</text><text x="30" y="72" font-family="ui-monospace, SFMono-Regular, Menlo, Consolas, 'Liberation Mono', monospace" font-size="14" fill="#9aa7a1">796 contributions in the last year</text><rect x="58" y="104" width="21" height="21" rx="3" fill="#161b22"/><text x="58" y="94" font-family="ui-monospace, SFMono-Regular, Menlo, Consolas, 'Liberation Mono', monospace" font-size="12" fill="#5f6e67">Feb</text><rect x="58" y="128" width="21" height="21" rx="3" fill="#161b22"/><rect x="58" y="152" width="21" height="21" rx="3" fill="#161b22"/><rect x="58" y="176" width="21" height="21" rx="3" fill="#161b22"/><rect x="58" y="200" width="21" height="21" rx="3" fill="#161b22"/><rect x="58" y="224" width="21" height="21" rx="3" fill="#161b22"/><rect x="58" y="248" width="21" height="21" rx="3" fill="#161b22"/><rect x="82" y="104" width="21" height="21" rx="3" fill="#006d32"/><rect x="82" y="128" width="21" height="21" rx="3" fill="#161b22"/><rect x="82" y="152" width="21" height="21" rx="3" fill="#006d32"/><rect x="82" y="176" width="21" height="21" rx="3" fill="#161b22"/><rect x="82" y="200" width="21" height="21" rx="3" fill="#161b22"/><rect x="82" y="224" width="21" height="21" rx="3" fill="#161b22"/><rect x="82" y="248" width="21" height="21" rx="3" fill="#0e4429"/><rect x="106" y="104" width="21" height="21" rx="3" fill="#26a641"/><rect x="106" y="128" width="21" height="21" rx="3" fill="#006d32"/><rect x="106" y="152" width="21" height="21" rx="3" fill="#161b22"/><rect x="106" y="176" width="21" height="21" rx="3" fill="#26a641"/><rect x="106" y="200" width="21" height="21" rx="3" fill="#0e4429"/><rect x="106" y="224" width="21" height="21" rx="3" fill="#006d32"/><rect x="106" y="248" width="21" height="21" rx="3" fill="#26a641"/><rect x="130" y="104" width="21" height="21" rx="3" fill="#161b22"/><rect x="130" y="128" width="21" height="21" rx="3" fill="#006d32"/><rect x="130" y="152" width="21" height="21" rx="3" fill="#006d32"/><rect x="130" y="176" width="21" height="21" rx="3" fill="#0e4429"/><rect x="130" y="200" width="21" height="21" rx="3" fill="#161b22"/><rect x="130" y="224" width="21" height="21" rx="3" fill="#26a641"/><rect x="130" y="248" width="21" height="21" rx="3" fill="#006d32"/><rect x="154" y="104" width="21" height="21" rx="3" fill="#161b22"/><text x="154" y="94" font-family="ui-monospace, SFMono-Regular, Menlo, Consolas, 'Liberation Mono', monospace" font-size="12" fill="#5f6e67">Mar</text><rect x="154" y="128" width="21" height="21" rx="3" fill="#39d98a"/><rect x="154" y="152" width="21" height="21" rx="3" fill="#006d32"/><rect x="154" y="176" width="21" height="21" rx="3" fill="#161b22"/><rect x="154" y="200" width="21" height="21" rx="3" fill="#26a641"/><rect x="154" y="224" width="21" height="21" rx="3" fill="#161b22"/><rect x="154" y="248" width="21" height="21" rx="3" fill="#161b22"/><rect x="178" y="104" width="21" height="21" rx="3" fill="#006d32"/><rect x="178" y="128" width="21" height="21" rx="3" fill="#161b22"/><rect x="178" y="152" width="21" height="21" rx="3" fill="#26a641"/><rect x="178" y="176" width="21" height="21" rx="3" fill="#39d98a"/><rect x="178" y="200" width="21" height="21" rx="3" fill="#161b22"/><rect x="178" y="224" width="21" height="21" rx="3" fill="#161b22"/><rect x="178" y="248" width="21" height="21" rx="3" fill="#26a641"/><rect x="202" y="104" width="21" height="21" rx="3" fill="#161b22"/><rect x="202" y="128" width="21" height="21" rx="3" fill="#0e4429"/><rect x="202" y="152" width="21" height="21" rx="3" fill="#39d98a"/><rect x="202" y="176" width="21" height="21" rx="3" fill="#161b22"/><rect x="202" y="200" width="21" height="21" rx="3" fill="#161b22"/><rect x="202" y="224" width="21" height="21" rx="3" fill="#39d98a"/><rect x="202" y="248" width="21" height="21" rx="3" fill="#161b22"/><rect x="226" y="104" width="21" height="21" rx="3" fill="#0e4429"/><rect x="226" y="128" width="21" height="21" rx="3" fill="#006d32"/><rect x="226" y="152" width="21" height="21" rx="3" fill="#161b22"/><rect x="226" y="176" width="21" height="21" rx="3" fill="#0e4429"/><rect x="226" y="200" width="21" height="21" rx="3" fill="#26a641"/><rect x="226" y="224" width="21" height="21" rx="3" fill="#161b22"/><rect x="226" y="248" width="21" height="21" rx="3" fill="#161b22"/><rect x="250" y="104" width="21" height="21" rx="3" fill="#161b22"/><rect x="250" y="128" width="21" height="21" rx="3" fill="#0e4429"/><rect x="250" y="152" width="21" height="21" rx="3" fill="#161b22"/><rect x="250" y="176" width="21" height="21" rx="3" fill="#161b22"/><rect x="250" y="200" width="21" height="21" rx="3" fill="#161b22"/><rect x="250" y="224" width="21" height="21" rx="3" fill="#161b22"/><rect x="250" y="248" width="21" height="21" rx="3" fill="#006d32"/><rect x="274" y="104" width="21" height="21" rx="3" fill="#006d32"/><text x="274" y="94" font-family="ui-monospace, SFMono-Regular, Menlo, Consolas, 'Liberation Mono', monospace" font-size="12" fill="#5f6e67">Apr</text><rect x="274" y="128" width="21" height="21" rx="3" fill="#161b22"/><rect x="274" y="152" width="21" height="21" rx="3" fill="#26a641"/><rect x="274" y="176" width="21" height="21" rx="3" fill="#39d98a"/><rect x="274" y="200" width="21" height="21" rx="3" fill="#39d98a"/><rect x="274" y="224" width="21" height="21" rx="3" fill="#39d98a"/><rect x="274" y="248" width="21" height="21" rx="3" fill="#39d98a"/><rect x="298" y="104" width="21" height="21" rx="3" fill="#006d32"/><rect x="298" y="128" width="21" height="21" rx="3" fill="#006d32"/><rect x="298" y="152" width="21" height="21" rx="3" fill="#39d98a"/><rect x="298" y="176" width="21" height="21" rx="3" fill="#161b22"/><rect x="298" y="200" width="21" height="21" rx="3" fill="#161b22"/><rect x="298" y="224" width="21" height="21" rx="3" fill="#26a641"/><rect x="298" y="248" width="21" height="21" rx="3" fill="#0e4429"/><rect x="322" y="104" width="21" height="21" rx="3" fill="#39d98a"/><rect x="322" y="128" width="21" height="21" rx="3" fill="#161b22"/><rect x="322" y="152" width="21" height="21" rx="3" fill="#0e4429"/><rect x="322" y="176" width="21" height="21" rx="3" fill="#39d98a"/><rect x="322" y="200" width="21" height="21" rx="3" fill="#39d98a"/><rect x="322" y="224" width="21" height="21" rx="3" fill="#39d98a"/><rect x="322" y="248" width="21" height="21" rx="3" fill="#26a641"/><rect x="346" y="104" width="21" height="21" rx="3" fill="#161b22"/><rect x="346" y="128" width="21" height="21" rx="3" fill="#006d32"/><rect x="346" y="152" width="21" height="21" rx="3" fill="#0e4429"/><rect x="346" y="176" width="21" height="21" rx="3" fill="#161b22"/><rect x="346" y="200" width="21" height="21" rx="3" fill="#161b22"/><rect x="346" y="224" width="21" height="21" rx="3" fill="#006d32"/><rect x="346" y="248" width="21" height="21" rx="3" fill="#0e4429"/><rect x="370" y="104" width="21" height="21" rx="3" fill="#006d32"/><text x="370" y="94" font-family="ui-monospace, SFMono-Regular, Menlo, Consolas, 'Liberation Mono', monospace" font-size="12" fill="#5f6e67">May</text><rect x="370" y="128" width="21" height="21" rx="3" fill="#161b22"/><rect x="370" y="152" width="21" height="21" rx="3" fill="#161b22"/><rect x="370" y="176" width="21" height="21" rx="3" fill="#006d32"/><rect x="370" y="200" width="21" height="21" rx="3" fill="#161b22"/><rect x="370" y="224" width="21" height="21" rx="3" fill="#161b22"/><rect x="370" y="248" width="21" height="21" rx="3" fill="#161b22"/><rect x="394" y="104" width="21" height="21" rx="3" fill="#0e4429"/><rect x="394" y="128" width="21" height="21" rx="3" fill="#161b22"/><rect x="394" y="152" width="21" height="21" rx="3" fill="#161b22"/><rect x="394" y="176" width="21" height="21" rx="3" fill="#161b22"/><rect x="394" y="200" width="21" height="21" rx="3" fill="#161b22"/><rect x="394" y="224" width="21" height="21" rx="3" fill="#0e4429"/><rect x="394" y="248" width="21" height="21" rx="3" fill="#0e4429"/><rect x="418" y="104" width="21" height="21" rx="3" fill="#161b22"/><rect x="418" y="128" width="21" height="21" rx="3" fill="#0e4429"/><rect x="418" y="152" width="21" height="21" rx="3" fill="#161b22"/><rect x="418" y="176" width="21" height="21" rx="3" fill="#006d32"/><rect x="418" y="200" width="21" height="21" rx="3" fill="#006d32"/><rect x="418" y="224" width="21" height="21" rx="3" fill="#161b22"/><rect x="418" y="248" width="21" height="21" rx="3" fill="#006d32"/><rect x="442" y="104" width="21" height="21" rx="3" fill="#161b22"/><rect x="442" y="128" width="21" height="21" rx="3" fill="#161b22"/><rect x="442" y="152" width="21" height="21" rx="3" fill="#006d32"/><rect x="442" y="176" width="21" height="21" rx="3" fill="#006d32"/><rect x="442" y="200" width="21" height="21" rx="3" fill="#161b22"/><rect x="442" y="224" width="21" height="21" rx="3" fill="#0e4429"/><rect x="442" y="248" width="21" height="21" rx="3" fill="#0e4429"/><rect x="466" y="104" width="21" height="21" rx="3" fill="#0e4429"/><rect x="466" y="128" width="21" height="21" rx="3" fill="#006d32"/><rect x="466" y="152" width="21" height="21" rx="3" fill="#0e4429"/><rect x="466" y="176" width="21" height="21" rx="3" fill="#161b22"/><rect x="466" y="200" width="21" height="21" rx="3" fill="#161b22"/><rect x="466" y="224" width="21" height="21" rx="3" fill="#161b22"/><rect x="466" y="248" width="21" height="21" rx="3" fill="#161b22"/><rect x="490" y="104" width="21" height="21" rx="3" fill="#161b22"/><text x="490" y="94" font-family="ui-monospace, SFMono-Regular, Menlo, Consolas, 'Liberation Mono', monospace" font-size="12" fill="#5f6e67">Jun</text><rect x="490" y="128" width="21" height="21" rx="3" fill="#0e4429"/><rect x="490" y="152" width="21" height="21" rx="3" fill="#161b22"/><rect x="490" y="176" width="21" height="21" rx="3" fill="#161b22"/><rect x="490" y="200" width="21" height="21" rx="3" fill="#161b22"/><rect x="490" y="224" width="21" height="21" rx="3" fill="#0e4429"/><rect x="490" y="248" width="21" height="21" rx="3" fill="#006d32"/><rect x="514" y="104" width="21" height="21" rx="3" fill="#006d32"/><rect x="514" y="128" width="21" height="21" rx="3" fill="#161b22"/><rect x="514" y="152" width="21" height="21" rx="3" fill="#161b22"/><rect x="514" y="176" width="21" height="21" rx="3" fill="#006d32"/><rect x="514" y="200" width="21" height="21" rx="3" fill="#0e4429"/><rect x="514" y="224" width="21" height="21" rx="3" fill="#0e4429"/><rect x="514" y="248" width="21" height="21" rx="3" fill="#006d32"/><rect x="538" y="104" width="21" height="21" rx="3" fill="#161b22"/><rect x="538" y="128" width="21" height="21" rx="3" fill="#006d32"/><rect x="538" y="152" width="21" height="21" rx="3" fill="#161b22"/><rect x="538" y="176" width="21" height="21" rx="3" fill="#161b22"/><rect x="538" y="200" width="21" height="21" rx="3" fill="#161b22"/><rect x="538" y="224" width="21" height="21" rx="3" fill="#006d32"/><rect x="538" y="248" width="21" height="21" rx="3" fill="#006d32"/><rect x="562" y="104" width="21" height="21" rx="3" fill="#26a641"/><rect x="562" y="128" width="21" height="21" rx="3" fill="#006d32"/><rect x="562" y="152" width="21" height="21" rx="3" fill="#161b22"/><rect x="562" y="176" width="21" height="21" rx="3" fill="#161b22"/><rect x="562" y="200" width="21" height="21" rx="3" fill="#161b22"/><rect x="562" y="224" width="21" height="21" rx="3" fill="#0e4429"/><rect x="562" y="248" width="21" height="21" rx="3" fill="#006d32"/><rect x="586" y="104" width="21" height="21" rx="3" fill="#006d32"/><text x="586" y="94" font-family="ui-monospace, SFMono-Regular, Menlo, Consolas, 'Liberation Mono', monospace" font-size="12" fill="#5f6e67">Jul</text><rect x="586" y="128" width="21" height="21" rx="3" fill="#006d32"/><rect x="586" y="152" width="21" height="21" rx="3" fill="#161b22"/><rect x="586" y="176" width="21" height="21" rx="3" fill="#161b22"/><rect x="586" y="200" width="21" height="21" rx="3" fill="#161b22"/><rect x="586" y="224" width="21" height="21" rx="3" fill="#161b22"/><rect x="586" y="248" width="21" height="21" rx="3" fill="#161b22"/><rect x="610" y="104" width="21" height="21" rx="3" fill="#006d32"/><rect x="610" y="128" width="21" height="21" rx="3" fill="#006d32"/><rect x="610" y="152" width="21" height="21" rx="3" fill="#006d32"/><rect x="610" y="176" width="21" height="21" rx="3" fill="#161b22"/><rect x="610" y="200" width="21" height="21" rx="3" fill="#006d32"/><rect x="610" y="224" width="21" height="21" rx="3" fill="#161b22"/><rect x="610" y="248" width="21" height="21" rx="3" fill="#161b22"/><rect x="634" y="104" width="21" height="21" rx="3" fill="#161b22"/><rect x="634" y="128" width="21" height="21" rx="3" fill="#006d32"/><rect x="634" y="152" width="21" height="21" rx="3" fill="#006d32"/><rect x="634" y="176" width="21" height="21" rx="3" fill="#006d32"/><rect x="634" y="200" width="21" height="21" rx="3" fill="#0e4429"/><rect x="634" y="224" width="21" height="21" rx="3" fill="#0e4429"/><rect x="634" y="248" width="21" height="21" rx="3" fill="#161b22"/><rect x="658" y="104" width="21" height="21" rx="3" fill="#161b22"/><rect x="658" y="128" width="21" height="21" rx="3" fill="#161b22"/><rect x="658" y="152" width="21" height="21" rx="3" fill="#161b22"/><rect x="658" y="176" width="21" height="21" rx="3" fill="#161b22"/><rect x="658" y="200" width="21" height="21" rx="3" fill="#006d32"/><rect x="658" y="224" width="21" height="21" rx="3" fill="#161b22"/><rect x="658" y="248" width="21" height="21" rx="3" fill="#006d32"/><rect x="682" y="104" width="21" height="21" rx="3" fill="#0e4429"/><text x="682" y="94" font-family="ui-monospace, SFMono-Regular, Menlo, Consolas, 'Liberation Mono', monospace" font-size="12" fill="#5f6e67">Aug</text><rect x="682" y="128" width="21" height="21" rx="3" fill="#006d32"/><rect x="682" y="152" width="21" height="21" rx="3" fill="#161b22"/><rect x="682" y="176" width="21" height="21" rx="3" fill="#0e4429"/><rect x="682" y="200" width="21" height="21" rx="3" fill="#006d32"/><rect x="682" y="224" width="21" height="21" rx="3" fill="#161b22"/><rect x="682" y="248" width="21" height="21" rx="3" fill="#161b22"/><rect x="706" y="104" width="21" height="21" rx="3" fill="#161b22"/><rect x="706" y="128" width="21" height="21" rx="3" fill="#006d32"/><rect x="706" y="152" width="21" height="21" rx="3" fill="#006d32"/><rect x="706" y="176" width="21" height="21" rx="3" fill="#161b22"/><rect x="706" y="200" width="21" height="21" rx="3" fill="#161b22"/><rect x="706" y="224" width="21" height="21" rx="3" fill="#006d32"/><rect x="706" y="248" width="21" height="21" rx="3" fill="#0e4429"/><rect x="730" y="104" width="21" height="21" rx="3" fill="#161b22"/><rect x="730" y="128" width="21" height="21" rx="3" fill="#006d32"/><rect x="730" y="152" width="21" height="21" rx="3" fill="#161b22"/><rect x="730" y="176" width="21" height="21" rx="3" fill="#006d32"/><rect x="730" y="200" width="21" height="21" rx="3" fill="#006d32"/><rect x="730" y="224" width="21" height="21" rx="3" fill="#161b22"/><rect x="730" y="248" width="21" height="21" rx="3" fill="#006d32"/><rect x="754" y="104" width="21" height="21" rx="3" fill="#006d32"/><rect x="754" y="128" width="21" height="21" rx="3" fill="#161b22"/><rect x="754" y="152" width="21" height="21" rx="3" fill="#0e4429"/><rect x="754" y="176" width="21" height="21" rx="3" fill="#161b22"/><rect x="754" y="200" width="21" height="21" rx="3" fill="#161b22"/><rect x="754" y="224" width="21" height="21" rx="3" fill="#006d32"/><rect x="754" y="248" width="21" height="21" rx="3" fill="#161b22"/><rect x="778" y="104" width="21" height="21" rx="3" fill="#161b22"/><rect x="778" y="128" width="21" height="21" rx="3" fill="#39d98a"/><rect x="778" y="152" width="21" height="21" rx="3" fill="#161b22"/><rect x="778" y="176" width="21" height="21" rx="3" fill="#161b22"/><rect x="778" y="200" width="21" height="21" rx="3" fill="#161b22"/><rect x="778" y="224" width="21" height="21" rx="3" fill="#0e4429"/><rect x="778" y="248" width="21" height="21" rx="3" fill="#161b22"/><rect x="802" y="104" width="21" height="21" rx="3" fill="#161b22"/><text x="802" y="94" font-family="ui-monospace, SFMono-Regular, Menlo, Consolas, 'Liberation Mono', monospace" font-size="12" fill="#5f6e67">Sep</text><rect x="802" y="128" width="21" height="21" rx="3" fill="#161b22"/><rect x="802" y="152" width="21" height="21" rx="3" fill="#161b22"/><rect x="802" y="176" width="21" height="21" rx="3" fill="#161b22"/><rect x="802" y="200" width="21" height="21" rx="3" fill="#39d98a"/><rect x="802" y="224" width="21" height="21" rx="3" fill="#161b22"/><rect x="802" y="248" width="21" height="21" rx="3" fill="#161b22"/><rect x="826" y="104" width="21" height="21" rx="3" fill="#161b22"/><rect x="826" y="128" width="21" height="21" rx="3" fill="#161b22"/><rect x="826" y="152" width="21" height="21" rx="3" fill="#006d32"/><rect x="826" y="176" width="21" height="21" rx="3" fill="#161b22"/><rect x="826" y="200" width="21" height="21" rx="3" fill="#161b22"/><rect x="826" y="224" width="21" height="21" rx="3" fill="#161b22"/><rect x="826" y="248" width="21" height="21" rx="3" fill="#39d98a"/><rect x="850" y="104" width="21" height="21" rx="3" fill="#39d98a"/><rect x="850" y="128" width="21" height="21" rx="3" fill="#26a641"/><rect x="850" y="152" width="21" height="21" rx="3" fill="#161b22"/><rect x="850" y="176" width="21" height="21" rx="3" fill="#161b22"/><rect x="850" y="200" width="21" height="21" rx="3" fill="#39d98a"/><rect x="850" y="224" width="21" height="21" rx="3" fill="#39d98a"/><rect x="850" y="248" width="21" height="21" rx="3" fill="#39d98a"/><rect x="874" y="104" width="21" height="21" rx="3" fill="#26a641"/><rect x="874" y="128" width="21" height="21" rx="3" fill="#161b22"/><rect x="874" y="152" width="21" height="21" rx="3" fill="#161b22"/><rect x="874" y="176" width="21" height="21" rx="3" fill="#26a641"/><rect x="874" y="200" width="21" height="21" rx="3" fill="#39d98a"/><rect x="874" y="224" width="21" height="21" rx="3" fill="#39d98a"/><rect x="874" y="248" width="21" height="21" rx="3" fill="#161b22"/><rect x="898" y="104" width="21" height="21" rx="3" fill="#39d98a"/><text x="898" y="94" font-family="ui-monospace, SFMono-Regular, Menlo, Consolas, 'Liberation Mono', monospace" font-size="12" fill="#5f6e67">Oct</text><rect x="898" y="128" width="21" height="21" rx="3" fill="#39d98a"/><rect x="898" y="152" width="21" height="21" rx="3" fill="#0e4429"/><rect x="898" y="176" width="21" height="21" rx="3" fill="#161b22"/><rect x="898" y="200" width="21" height="21" rx="3" fill="#161b22"/><rect x="898" y="224" width="21" height="21" rx="3" fill="#161b22"/><rect x="898" y="248" width="21" height="21" rx="3" fill="#161b22"/><text x="48" y="142" text-anchor="end" font-family="ui-monospace, SFMono-Regular, Menlo, Consolas, 'Liberation Mono', monospace" font-size="11" fill="#5f6e67">Mon</text><text x="48" y="190" text-anchor="end" font-family="ui-monospace, SFMono-Regular, Menlo, Consolas, 'Liberation Mono', monospace" font-size="11" fill="#5f6e67">Wed</text><text x="48" y="238" text-anchor="end" font-family="ui-monospace, SFMono-Regular, Menlo, Consolas, 'Liberation Mono', monospace" font-size="11" fill="#5f6e67">Fri</text><text x="758" y="291" font-family="ui-monospace, SFMono-Regular, Menlo, Consolas, 'Liberation Mono', monospace" font-size="12" fill="#5f6e67">Less</text><rect x="796" y="280" width="14" height="14" rx="3" fill="#161b22"/><rect x="813" y="280" width="14" height="14" rx="3" fill="#0e4429"/><rect x="830" y="280" width="14" height="14" rx="3" fill="#006d32"/><rect x="847" y="280" width="14" height="14" rx="3" fill="#26a641"/><rect x="864" y="280" width="14" height="14" rx="3" fill="#39d98a"/><text x="885" y="291" font-family="ui-monospace, SFMono-Regular, Menlo, Consolas, 'Liberation Mono', monospace" font-size="12" fill="#5f6e67">More</text><rect x="990" y="86" width="262" height="60" rx="12" fill="#0a0f0d" stroke="#39d98a" stroke-opacity="0.4"/><text x="1008" y="125" font-family="'Segoe UI', -apple-system, Helvetica, Arial, sans-serif" font-size="26" font-weight="700" fill="#39d98a">796</text><text x="1234" y="123" text-anchor="end" font-family="ui-monospace, SFMono-Regular, Menlo, Consolas, 'Liberation Mono', monospace" font-size="12" fill="#9aa7a1">contributions / yr</text><rect x="990" y="160" width="262" height="60" rx="12" fill="#0a0f0d" stroke="#39d98a" stroke-opacity="0.4"/><text x="1008" y="199" font-family="'Segoe UI', -apple-system, Helvetica, Arial, sans-serif" font-size="26" font-weight="700" fill="#39d98a">21</text><text x="1234" y="197" text-anchor="end" font-family="ui-monospace, SFMono-Regular, Menlo, Consolas, 'Liberation Mono', monospace" font-size="12" fill="#9aa7a1">public repositories</text><rect x="990" y="234" width="262" height="60" rx="12" fill="#0a0f0d" stroke="#39d98a" stroke-opacity="0.4"/><text x="1008" y="273" font-family="'Segoe UI', -apple-system, Helvetica, Arial, sans-serif" font-size="26" font-weight="700" fill="#39d98a">8 days</text><text x="1234" y="271" text-anchor="end" font-family="ui-monospace, SFMono-Regular, Menlo, Consolas, 'Liberation Mono', monospace" font-size="12" fill="#9aa7a1">longest streak</text><text x="30" y="328" font-family="ui-monospace, SFMono-Regular, Menlo, Consolas, 'Liberation Mono', monospace" font-size="13" fill="#9aa7a1">languages across public repos</text><clipPath id="bar"><rect x="30" y="342" width="1222" height="12" rx="6"/></clipPath><g clip-path="url(#bar)"><rect x="30.0" y="342" width="958.4" height="12" fill="#3572A5"/><rect x="987.4" y="342" width="135.2" height="12" fill="#3178c6"/><rect x="1121.6" y="342" width="112.8" height="12" fill="#f1e05a"/><rect x="1233.5" y="342" width="19.5" height="12" fill="#f34b7d"/></g><circle cx="35" cy="375" r="5" fill="#3572A5"/><text x="46" y="380" font-family="'Segoe UI', -apple-system, Helvetica, Arial, sans-serif" font-size="14" fill="#e8f0ec">Python 78%</text><circle cx="141.0" cy="375" r="5" fill="#3178c6"/><text x="152.0" y="380" font-family="'Segoe UI', -apple-system, Helvetica, Arial, sans-serif" font-size="14" fill="#e8f0ec">TypeScript 11%</text><circle cx="277.4" cy="375" r="5" fill="#f1e05a"/><text x="288.4" y="380" font-family="'Segoe UI', -apple-system, Helvetica, Arial, sans-serif" font-size="14" fill="#e8f0ec">JavaScript 9%</text><circle cx="406.2" cy="375" r="5" fill="#f34b7d"/><text x="417.2" y="380" font-family="'Segoe UI', -apple-system, Helvetica, Arial, sans-serif" font-size="14" fill="#e8f0ec">C++ 2%</text><text x="1252" y="380" text-anchor="end" font-family="ui-monospace, SFMono-Regular, Menlo, Consolas, 'Liberation Mono', monospace" font-size="12" fill="#5f6e67">updated 2026-10-10</text></svg>
